<?xml version="1.0" encoding="utf-8"?>
<!-- Generator: Adobe Illustrator 15.1.0, SVG Export Plug-In . SVG Version: 6.00 Build 0)  -->
<!DOCTYPE svg PUBLIC "-//W3C//DTD SVG 1.1//EN" "http://www.w3.org/Graphics/SVG/1.1/DTD/svg11.dtd">
<svg version="1.1" id="Layer_1" xmlns="http://www.w3.org/2000/svg" xmlns:xlink="http://www.w3.org/1999/xlink" x="0px" y="0px"
	 width="96px" height="96px" viewBox="0 0 96 96" enable-background="new 0 0 96 96" xml:space="preserve">
<g>
	<path d="M94.389,32.377c-0.143-0.146-0.302-0.286-0.473-0.413C80.52,22.227,64.684,17.078,48.12,17.078h-0.115
		c-16.635,0-32.513,5.149-45.921,14.893c-0.83,0.621-1.369,1.526-1.517,2.553c-0.148,1.023,0.113,2.047,0.736,2.881
		c0.123,0.162,0.258,0.315,0.394,0.443c0.768,0.76,1.785,1.178,2.865,1.178c0.866,0,1.694-0.271,2.396-0.778
		c11.992-8.655,26.15-13.229,40.946-13.229h0.102c14.852,0,29.043,4.572,41.042,13.225c1.589,1.146,3.914,0.966,5.254-0.387
		C95.831,36.369,95.87,33.912,94.389,32.377z"/>
	<path d="M80.445,43.236c-9.651-6.27-20.87-9.582-32.441-9.582c-11.578,0-22.798,3.314-32.455,9.592
		c-1.757,1.188-2.22,3.586-1.029,5.351c0.159,0.228,0.333,0.435,0.517,0.61c1.343,1.316,3.548,1.533,5.117,0.514
		c8.302-5.316,17.906-8.129,27.773-8.129h0.153c9.865,0,19.467,2.813,27.766,8.129c0.676,0.434,1.454,0.662,2.254,0.662
		c1.096,0,2.113-0.418,2.862-1.171c1.53-1.478,1.577-3.924,0.104-5.453C80.887,43.568,80.68,43.396,80.445,43.236z"/>
	<path d="M48.251,67.922c-3.033,0-5.5,2.469-5.5,5.5s2.467,5.5,5.5,5.5s5.5-2.469,5.5-5.5S51.284,67.922,48.251,67.922z"/>
	<path d="M66.625,54.691c-5.727-2.914-12.165-4.453-18.621-4.453c-6.468,0-12.908,1.539-18.625,4.453
		c-1.055,0.537-1.766,1.518-1.95,2.687c-0.191,1.216,0.226,2.472,1.119,3.362l0.083,0.08c1.169,1.17,3.232,1.483,4.784,0.724
		c4.493-2.203,9.537-3.367,14.588-3.367c5.124,0,10.032,1.138,14.588,3.379c0.593,0.29,1.25,0.443,1.903,0.443
		c1.104,0,2.115-0.412,2.832-1.144l0.141-0.125c0.887-0.885,1.301-2.139,1.107-3.354C68.393,56.208,67.682,55.229,66.625,54.691z"/>
</g>
</svg>
